<svg xmlns="http://www.w3.org/2000/svg" viewBox="0 0 120 100" fill="none"><path d="M30 30a34 34 0 0 1 54-11l7 7" stroke="#fff" stroke-width="5" stroke-linecap="round"/><path d="M89 14l3 14-14-2" stroke="#fff" stroke-width="5" stroke-linecap="round" stroke-linejoin="round"/><path d="M90 70a34 34 0 0 1-54 11l-7-7" stroke="#fff" stroke-width="5" stroke-linecap="round"/><path d="M31 86l-3-14 14 2" stroke="#fff" stroke-width="5" stroke-linecap="round" stroke-linejoin="round"/><path d="M43 52l15-14 14 13 8 1 9 10-8 10-10-7-9 8-12-11-8 5-10-10 11-5z" stroke="#fff" stroke-width="5" stroke-linejoin="round"/><path d="M89 30a42 42 0 0 1 5 35" stroke="#D61222" stroke-width="6" stroke-linecap="round"/></svg>
