<svg xmlns="http://www.w3.org/2000/svg" viewBox="0 0 150 130" fill="none"><path d="M65 73c-10-12-13-27-7-39 7-13 23-22 48-25-3 25-12 41-25 48-12 6-27 3-39-7" fill="white" stroke="#061F49" stroke-width="6" stroke-linejoin="round"/><circle cx="85" cy="31" r="8" stroke="#D61222" stroke-width="5"/><path d="M54 66l-18 7 7-18M78 76l-7 18 18-7M40 85c-8 5-12 13-14 24 11-2 19-6 24-14" stroke="#061F49" stroke-width="6" stroke-linecap="round" stroke-linejoin="round"/><path d="M86 94h12V72H86v22zM106 94h12V60h-12v34zM126 94h12V47h-12v47z" stroke="#061F49" stroke-width="5"/><path d="M97 51l17-17 10 10" stroke="#D61222" stroke-width="6" stroke-linecap="round" stroke-linejoin="round"/><path d="M124 44V29h-15" stroke="#D61222" stroke-width="6" stroke-linecap="round" stroke-linejoin="round"/></svg>
