<svg xmlns="http://www.w3.org/2000/svg" viewBox="0 0 150 130" fill="none"><path d="M113 39a49 49 0 0 0-79 13M31 40v15h16M37 91a49 49 0 0 0 79-13M119 91V76h-16" stroke="#061F49" stroke-width="6" stroke-linecap="round" stroke-linejoin="round"/><path d="M39 91h14V73H39v18zM68 91h14V61H68v30zM97 91h14V49H97v42z" stroke="#061F49" stroke-width="6"/><path d="M42 68l24-22 17 12 26-31" stroke="#D61222" stroke-width="6" stroke-linecap="round" stroke-linejoin="round"/><path d="M98 28h12v12" stroke="#D61222" stroke-width="6" stroke-linecap="round" stroke-linejoin="round"/><path d="M97 91h14V49H97v42z" stroke="#D61222" stroke-width="6"/></svg>