<svg xmlns="http://www.w3.org/2000/svg" viewBox="0 0 150 130" fill="none"><path d="M35 70c0-24 18-43 43-43s43 19 43 43" stroke="#061F49" stroke-width="6" stroke-linecap="round"/><path d="M35 69h-8c-5 0-9 4-9 9v12c0 5 4 9 9 9h8V69zM121 69h8c5 0 9 4 9 9v12c0 5-4 9-9 9h-8V69z" stroke="#061F49" stroke-width="6"/><path d="M121 97c0 13-11 23-24 23H78" stroke="#061F49" stroke-width="6" stroke-linecap="round"/><rect x="55" y="113" width="24" height="10" rx="5" fill="#D61222" stroke="#061F49" stroke-width="4"/><path d="M46 67c0-18 14-32 32-32s32 14 32 32-14 32-32 32c-7 0-13-2-18-6l-16 5 5-15c-2-5-3-10-3-16z" fill="white" stroke="#061F49" stroke-width="6"/><circle cx="66" cy="67" r="4" fill="#061F49"/><circle cx="79" cy="67" r="4" fill="#061F49"/><circle cx="92" cy="67" r="4" fill="#061F49"/></svg>
